<?xml version="1.0" encoding="iso-8859-1"?>
<!-- Generator: Adobe Illustrator 19.0.0, SVG Export Plug-In . SVG Version: 6.00 Build 0)  -->
<svg version="1.1" id="Capa_1" xmlns="http://www.w3.org/2000/svg" xmlns:xlink="http://www.w3.org/1999/xlink" x="0px" y="0px"
	 viewBox="0 0 512 512" style="enable-background:new 0 0 512 512;" xml:space="preserve">
<g>
	<g>
		<path d="M461.959,278.919c-0.129-0.64-0.32-1.27-0.57-1.87c-0.25-0.6-0.56-1.19-0.92-1.73c-0.37-0.55-0.79-1.06-1.25-1.52
			c-2.321-2.32-5.77-3.38-9.02-2.73c-0.641,0.13-1.27,0.32-1.87,0.57c-0.61,0.25-1.19,0.561-1.73,0.921
			c-0.55,0.36-1.06,0.78-1.52,1.24c-0.46,0.46-0.88,0.97-1.24,1.52c-0.36,0.54-0.67,1.13-0.92,1.73c-0.25,0.6-0.44,1.23-0.57,1.87
			s-0.2,1.3-0.2,1.95c0,2.64,1.071,5.21,2.931,7.07c0.46,0.46,0.97,0.88,1.52,1.25c0.539,0.36,1.12,0.67,1.73,0.92
			c0.599,0.25,1.229,0.44,1.87,0.57c0.639,0.13,1.3,0.2,1.949,0.2c2.631,0,5.21-1.07,7.069-2.941c1.861-1.86,2.93-4.43,2.93-7.07
			C462.148,280.219,462.089,279.559,461.959,278.919z"/>
	</g>
</g>
<g>
	<g>
		<path d="M466.022,66.383c-28.248-17.986-66.105-27.891-106.599-27.892c-0.001,0-0.001,0-0.001,0H21.945
			c-3.435,0-6.63,1.763-8.461,4.669c-0.542,0.861-1.092,1.712-1.642,2.563C6.292,54.318,0,64.061,0,82.871
			c0,18.808,6.291,28.549,11.841,37.144c4.829,7.477,8.643,13.383,8.643,26.294c0,12.911-3.813,18.816-8.643,26.293
			C6.291,181.196,0,190.937,0,209.744c0,18.808,6.291,28.549,11.841,37.144c4.829,7.477,8.643,13.383,8.643,26.294
			c0,12.912-3.813,18.818-8.643,26.295C6.291,308.073,0,317.815,0,336.623c0,18.809,6.29,28.553,11.839,37.149
			c3.068,4.753,5.718,8.857,7.245,14.523c1.176,4.365,5.135,7.398,9.655,7.398h180.235c15.518,45.093,76.052,77.816,150.444,77.816
			c40.496,0,78.355-9.906,106.604-27.892C495.672,426.739,512,400.851,512,372.724V139.276
			C512,111.149,495.672,85.262,466.022,66.383z M35.814,375.693c-2.161-5.005-4.776-9.058-7.171-12.769
			C23.813,355.445,20,349.537,20,336.623c0-12.912,3.813-18.818,8.643-26.295c5.55-8.595,11.841-18.337,11.841-37.145
			s-6.291-28.549-11.841-37.144C23.813,228.561,20,222.656,20,209.744c0-12.911,3.813-18.816,8.643-26.292
			c5.55-8.595,11.841-18.336,11.841-37.143c0-18.808-6.291-28.549-11.841-37.144C23.813,101.688,20,95.782,20,82.871
			c0-11.792,3.181-17.742,7.411-24.38h72.132c-2.694,6.223-4.651,13.891-4.651,24.38c0,18.808,6.291,28.549,11.841,37.144
			c4.829,7.477,8.643,13.383,8.643,26.294c0,12.911-3.813,18.816-8.643,26.293c-5.55,8.594-11.841,18.335-11.841,37.143
			s6.291,28.549,11.841,37.144c4.829,7.477,8.643,13.383,8.643,26.294c0,12.912-3.813,18.818-8.643,26.295
			c-5.55,8.595-11.841,18.337-11.841,37.145c0,18.809,6.29,28.553,11.839,37.149c0.42,0.651,0.832,1.289,1.234,1.921H35.814z
			 M205.173,375.69h-74.466v0.003c-2.161-5.005-4.776-9.058-7.172-12.769c-4.829-7.479-8.643-13.387-8.643-26.302
			c0-12.912,3.813-18.818,8.643-26.296c5.55-8.595,11.841-18.336,11.841-37.145c0-18.808-6.291-28.549-11.841-37.144
			c-4.829-7.477-8.643-13.383-8.643-26.295c0-12.911,3.813-18.816,8.643-26.292c5.55-8.595,11.841-18.336,11.841-37.143
			c0-18.808-6.291-28.549-11.841-37.144c-4.829-7.477-8.643-13.383-8.643-26.294c0-11.792,3.181-17.742,7.411-24.38h143.763
			c-37.259,18.234-60.958,47.368-60.958,80.785v233.447C205.108,373.715,205.131,374.704,205.173,375.69z M455.28,428.746
			c-25.079,15.969-59.123,24.763-95.862,24.763c-74.059,0-134.31-36.24-134.31-80.785V261.791
			c26.297,30.36,76.054,50.427,134.31,50.427c21.543,0,42.242-2.755,61.522-8.189c5.315-1.498,8.41-7.022,6.912-12.338
			c-1.497-5.315-7.017-8.408-12.338-6.912c-17.514,4.936-36.388,7.439-56.097,7.439c-74.059,0-134.31-36.24-134.31-80.785v-21.798
			c26.297,30.36,76.054,50.427,134.31,50.427c40.496,0,78.355-9.906,106.604-27.892c10.314-6.567,19.014-13.983,25.978-22.046v182.6
			H492C492,393.774,478.96,413.67,455.28,428.746z M455.28,195.298c-25.079,15.968-59.124,24.763-95.862,24.763
			c-74.059,0-134.31-36.24-134.31-80.785s60.251-80.785,134.31-80.785c36.738,0,70.783,8.794,95.862,24.763
			C478.959,98.331,492,118.227,492,139.276C492,160.326,478.959,180.222,455.28,195.298z"/>
	</g>
</g>
<g>
	<g>
		<path d="M410.886,102.989c-13.506-8.139-31.785-12.621-51.468-12.621s-37.961,4.482-51.468,12.621
			c-15.052,9.071-23.342,21.957-23.342,36.287s8.29,27.217,23.342,36.287c13.507,8.139,31.785,12.621,51.468,12.621
			c19.683,0,37.962-4.482,51.468-12.621c15.053-9.071,23.343-21.957,23.343-36.287S425.939,112.059,410.886,102.989z
			 M359.418,168.184c-30.222,0-54.81-12.968-54.81-28.908s24.588-28.908,54.81-28.908c30.223,0,54.81,12.968,54.81,28.908
			S389.641,168.184,359.418,168.184z"/>
	</g>
</g>
<g>
</g>
<g>
</g>
<g>
</g>
<g>
</g>
<g>
</g>
<g>
</g>
<g>
</g>
<g>
</g>
<g>
</g>
<g>
</g>
<g>
</g>
<g>
</g>
<g>
</g>
<g>
</g>
<g>
</g>
</svg>
